<svg width="120" height="120" viewBox="0 0 120 120" fill="none" xmlns="http://www.w3.org/2000/svg">
  <rect width="120" height="120" rx="28" fill="#3B82F6"/>
  <path d="M34 64C34 48.536 46.536 36 62 36H84C87.314 36 90 38.686 90 42V84C90 87.314 87.314 90 84 90H62C46.536 90 34 77.464 34 62Z" fill="white" opacity="0.25"/>
  <path d="M44 62C44 52.059 52.059 44 62 44H76C78.209 44 80 45.791 80 48V76C80 78.209 78.209 80 76 80H62C52.059 80 44 71.941 44 62Z" fill="white"/>
  <path d="M56 68C56 61.373 61.373 56 68 56H74V68C74 74.627 68.627 80 62 80H56V68Z" fill="#1D4ED8"/>
</svg>
